<?xml version="1.0" encoding="UTF-8" standalone="no"?>
<svg width="2560" height="1440" viewBox="0 0 2560 1440" xmlns="http://www.w3.org/2000/svg">
  <!-- Fundo da tela -->
  <rect width="2560" height="1440" fill="#FFFFFF"/>
  
  <!-- Barra de status -->
  <rect width="2560" height="80" fill="#F8F8F8"/>
  <text x="1280" y="50" font-family="Arial" font-size="28" text-anchor="middle" fill="#333333">12:30</text>
  
  <!-- Cabeçalho do app -->
  <rect y="80" width="2560" height="120" fill="#FFE4E1"/>
  <text x="60" y="155" font-family="Arial" font-size="36" font-weight="bold" fill="#FF69B4">Açucaradas</text>
  
  <!-- Ícones do cabeçalho -->
  <circle cx="2400" cy="140" r="25" fill="none" stroke="#FF69B4" stroke-width="2"/>
  <line x1="2418" y1="158" x2="2430" y2="170" stroke="#FF69B4" stroke-width="3"/>
  
  <circle cx="2480" cy="140" r="25" fill="none" stroke="#FF69B4" stroke-width="2"/>
  <line x1="2465" y1="140" x2="2495" y2="140" stroke="#FF69B4" stroke-width="2"/>
  <line x1="2480" y1="125" x2="2480" y2="155" stroke="#FF69B4" stroke-width="2"/>
  
  <!-- Layout de duas colunas para tablet -->
  <rect x="60" y="240" width="1200" height="400" rx="15" ry="15" fill="#FFC0CB"/>
  <text x="660" y="360" font-family="Arial" font-size="40" font-weight="bold" text-anchor="middle" fill="#FFFFFF">Doces Especiais</text>
  <text x="660" y="420" font-family="Arial" font-size="30" text-anchor="middle" fill="#FFFFFF">Encomende para o Dia das Mães</text>
  <text x="660" y="480" font-family="Arial" font-size="24" text-anchor="middle" fill="#FFFFFF">Até 15% de desconto</text>
  
  <!-- Painel lateral direito - Confeiteiros em destaque -->
  <text x="1320" y="280" font-family="Arial" font-size="28" font-weight="bold" fill="#333333">Confeiteiros em destaque</text>
  
  <!-- Confeiteiro 1 -->
  <rect x="1320" y="300" width="1180" height="160" rx="15" ry="15" fill="#F8F8F8"/>
  <circle cx="1400" cy="380" r="50" fill="#FFC0CB"/>
  <text x="1400" y="390" font-family="Arial" font-size="24" text-anchor="middle" fill="#FFFFFF">MC</text>
  <text x="1480" y="350" font-family="Arial" font-size="24" font-weight="bold" fill="#333333">Maria Confeitaria</text>
  <text x="1480" y="380" font-family="Arial" font-size="18" fill="#666666">Especialista em bolos</text>
  
  <!-- Estrelas -->
  <polygon points="1480,410 1490,430 1510,435 1495,450 1500,470 1480,460 1460,470 1465,450 1450,435 1470,430" fill="#FFD700" width="15" height="15"/>
  <polygon points="1520,410 1530,430 1550,435 1535,450 1540,470 1520,460 1500,470 1505,450 1490,435 1510,430" fill="#FFD700" width="15" height="15"/>
  <polygon points="1560,410 1570,430 1590,435 1575,450 1580,470 1560,460 1540,470 1545,450 1530,435 1550,430" fill="#FFD700" width="15" height="15"/>
  <polygon points="1600,410 1610,430 1630,435 1615,450 1620,470 1600,460 1580,470 1585,450 1570,435 1590,430" fill="#FFD700" width="15" height="15"/>
  <polygon points="1640,410 1650,430 1670,435 1655,450 1660,470 1640,460 1620,470 1625,450 1610,435 1630,430" fill="#FFD700" width="15" height="15"/>
  
  <text x="1690" y="430" font-family="Arial" font-size="18" fill="#666666">(127)</text>
  
  <!-- Confeiteiro 2 -->
  <rect x="1320" y="480" width="1180" height="160" rx="15" ry="15" fill="#F8F8F8"/>
  <circle cx="1400" cy="560" r="50" fill="#FFC0CB"/>
  <text x="1400" y="570" font-family="Arial" font-size="24" text-anchor="middle" fill="#FFFFFF">JD</text>
  <text x="1480" y="530" font-family="Arial" font-size="24" font-weight="bold" fill="#333333">João Doces</text>
  <text x="1480" y="560" font-family="Arial" font-size="18" fill="#666666">Brigadeiros gourmet</text>
  
  <!-- Estrelas -->
  <polygon points="1480,590 1490,610 1510,615 1495,630 1500,650 1480,640 1460,650 1465,630 1450,615 1470,610" fill="#FFD700" width="15" height="15"/>
  <polygon points="1520,590 1530,610 1550,615 1535,630 1540,650 1520,640 1500,650 1505,630 1490,615 1510,610" fill="#FFD700" width="15" height="15"/>
  <polygon points="1560,590 1570,610 1590,615 1575,630 1580,650 1560,640 1540,650 1545,630 1530,615 1550,610" fill="#FFD700" width="15" height="15"/>
  <polygon points="1600,590 1610,610 1630,615 1615,630 1620,650 1600,640 1580,650 1585,630 1570,615 1590,610" fill="#FFD700" width="15" height="15"/>
  <polygon points="1640,590 1650,610 1670,615 1655,630 1660,650 1640,640 1620,650 1625,630 1610,615 1630,610" fill="#FFD700" opacity="0.5" width="15" height="15"/>
  
  <text x="1690" y="610" font-family="Arial" font-size="18" fill="#666666">(98)</text>
  
  <!-- Categorias -->
  <text x="60" y="690" font-family="Arial" font-size="28" font-weight="bold" fill="#333333">Categorias</text>
  
  <!-- Grid de categorias para tablet -->
  <rect x="60" y="710" width="280" height="280" rx="15" ry="15" fill="#FFB6C1"/>
  <circle cx="200" cy="820" r="80" fill="#FF69B4"/>
  <text x="200" y="940" font-family="Arial" font-size="22" text-anchor="middle" fill="#333333">Bolos</text>
  
  <rect x="360" y="710" width="280" height="280" rx="15" ry="15" fill="#FFB6C1"/>
  <circle cx="500" cy="820" r="80" fill="#FF69B4"/>
  <text x="500" y="940" font-family="Arial" font-size="22" text-anchor="middle" fill="#333333">Docinhos</text>
  
  <rect x="660" y="710" width="280" height="280" rx="15" ry="15" fill="#FFB6C1"/>
  <circle cx="800" cy="820" r="80" fill="#FF69B4"/>
  <text x="800" y="940" font-family="Arial" font-size="22" text-anchor="middle" fill="#333333">Tortas</text>
  
  <rect x="960" y="710" width="280" height="280" rx="15" ry="15" fill="#FFB6C1"/>
  <circle cx="1100" cy="820" r="80" fill="#FF69B4"/>
  <text x="1100" y="940" font-family="Arial" font-size="22" text-anchor="middle" fill="#333333">Cupcakes</text>
  
  <!-- Mais pedidos -->
  <text x="1320" y="690" font-family="Arial" font-size="28" font-weight="bold" fill="#333333">Mais pedidos</text>
  
  <!-- Produtos em grid para tablet -->
  <rect x="1320" y="710" width="380" height="400" rx="15" ry="15" fill="#F8F8F8"/>
  <rect x="1320" y="710" width="380" height="220" rx="15" ry="15" fill="#D2691E"/>
  <text x="1340" y="960" font-family="Arial" font-size="20" font-weight="bold" fill="#333333">Bolo de Chocolate</text>
  <text x="1340" y="990" font-family="Arial" font-size="18" fill="#666666">A partir de R$ 89,90</text>
  <text x="1340" y="1020" font-family="Arial" font-size="16" fill="#FF69B4">★★★★★ (45)</text>
  
  <rect x="1720" y="710" width="380" height="400" rx="15" ry="15" fill="#F8F8F8"/>
  <rect x="1720" y="710" width="380" height="220" rx="15" ry="15" fill="#FFB6C1"/>
  <text x="1740" y="960" font-family="Arial" font-size="20" font-weight="bold" fill="#333333">Cupcakes (6 unid.)</text>
  <text x="1740" y="990" font-family="Arial" font-size="18" fill="#666666">A partir de R$ 42,00</text>
  <text x="1740" y="1020" font-family="Arial" font-size="16" fill="#FF69B4">★★★★☆ (32)</text>
  
  <rect x="2120" y="710" width="380" height="400" rx="15" ry="15" fill="#F8F8F8"/>
  <rect x="2120" y="710" width="380" height="220" rx="15" ry="15" fill="#FFDAB9"/>
  <text x="2140" y="960" font-family="Arial" font-size="20" font-weight="bold" fill="#333333">Torta de Limão</text>
  <text x="2140" y="990" font-family="Arial" font-size="18" fill="#666666">A partir de R$ 75,00</text>
  <text x="2140" y="1020" font-family="Arial" font-size="16" fill="#FF69B4">★★★★★ (38)</text>
  
  <!-- Promoções -->
  <text x="60" y="1040" font-family="Arial" font-size="28" font-weight="bold" fill="#333333">Promoções</text>
  
  <!-- Promoção 1 -->
  <rect x="60" y="1070" width="1200" height="150" rx="15" ry="15" fill="#FFE4E1"/>
  <text x="100" y="1120" font-family="Arial" font-size="24" font-weight="bold" fill="#FF69B4">Frete Grátis</text>
  <text x="100" y="1160" font-family="Arial" font-size="20" fill="#333333">Em pedidos acima de R$ 120,00</text>
  <text x="1100" y="1140" font-family="Arial" font-size="18" fill="#FF69B4">Usar ></text>
  
  <!-- Promoção 2 -->
  <rect x="1320" y="1150" width="1180" height="150" rx="15" ry="15" fill="#FFE4E1"/>
  <text x="1360" y="1200" font-family="Arial" font-size="24" font-weight="bold" fill="#FF69B4">15% OFF em Bolos</text>
  <text x="1360" y="1240" font-family="Arial" font-size="20" fill="#333333">Válido até 14/05/2023</text>
  <text x="2350" y="1220" font-family="Arial" font-size="18" fill="#FF69B4">Usar ></text>
  
  <!-- Barra de navegação inferior -->
  <rect y="1340" width="2560" height="100" fill="#FFE4E1"/>
  
  <!-- Ícone Home (ativo) -->
  <circle cx="400" cy="1390" r="30" fill="#FF69B4"/>
  <polyline points="380,1390 400,1370 420,1390" fill="none" stroke="#FFFFFF" stroke-width="2"/>
  <line x1="400" y1="1370" x2="400" y2="1410" stroke="#FFFFFF" stroke-width="2"/>
  
  <!-- Ícone Busca -->
  <circle cx="800" cy="1390" r="25" fill="none" stroke="#333333" stroke-width="2"/>
  <line x1="818" y1="1408" x2="830" y2="1420" stroke="#333333" stroke-width="3"/>
  
  <!-- Ícone Chat -->
  <rect x="1180" y="1365" width="40" height="50" rx="5" ry="5" fill="none" stroke="#333333" stroke-width="2"/>
  <line x1="1180" y1="1380" x2="1220" y2="1380" stroke="#333333" stroke-width="2"/>
  <line x1="1180" y1="1395" x2="1220" y2="1395" stroke="#333333" stroke-width="2"/>
  <line x1="1180" y1="1410" x2="1200" y2="1410" stroke="#333333" stroke-width="2"/>
  
  <!-- Ícone Pedidos -->
  <rect x="1580" y="1365" width="40" height="50" rx="5" ry="5" fill="none" stroke="#333333" stroke-width="2"/>
  <line x1="1580" y1="1380" x2="1620" y2="1380" stroke="#333333" stroke-width="2"/>
  <line x1="1580" y1="1395" x2="1620" y2="1395" stroke="#333333" stroke-width="2"/>
  <line x1="1580" y1="1410" x2="1620" y2="1410" stroke="#333333" stroke-width="2"/>
  
  <!-- Ícone Perfil -->
  <circle cx="2000" cy="1390" r="25" fill="none" stroke="#333333" stroke-width="2"/>
  <circle cx="2000" cy="1375" r="10" fill="none" stroke="#333333" stroke-width="2"/>
  <path d="M1975,1410 Q2000,1395 2025,1410" fill="none" stroke="#333333" stroke-width="2"/>
</svg>