<svg xmlns="http://www.w3.org/2000/svg" width="32" height="32" viewBox="0 0 32 32">
  <rect width="32" height="32" fill="#FF69B4" />
  <circle cx="16" cy="16" r="12" fill="#FFFFFF" />
  <path d="M16 7c-5 0-9 4-9 9s4 9 9 9 9-4 9-9-4-9-9-9zm0 16c-3.9 0-7-3.1-7-7s3.1-7 7-7 7 3.1 7 7-3.1 7-7 7z" fill="#FF69B4" />
  <path d="M20 13c-1-1-2.4-1.6-3.9-1.6-1.5 0-2.9 0.6-3.9 1.6-1 1-1.6 2.4-1.6 3.9 0 1.5 0.6 2.9 1.6 3.9 1 1 2.4 1.6 3.9 1.6 1.5 0 2.9-0.6 3.9-1.6 1-1 1.6-2.4 1.6-3.9 0-1.5-0.6-2.9-1.6-3.9zM16 20.3c-1.9 0-3.4-1.5-3.4-3.4s1.5-3.4 3.4-3.4 3.4 1.5 3.4 3.4-1.5 3.4-3.4 3.4z" fill="#FF69B4" />
  <circle cx="16" cy="16.9" r="2" fill="#FF69B4" />
</svg>