<svg xmlns="http://www.w3.org/2000/svg" width="96" height="96" viewBox="0 0 96 96">
  <rect width="96" height="96" fill="#FF69B4" />
  <circle cx="48" cy="48" r="36" fill="#FFFFFF" />
  <path d="M48 20c-15.5 0-28 12.5-28 28s12.5 28 28 28 28-12.5 28-28-12.5-28-28-28zm0 51c-12.7 0-23-10.3-23-23s10.3-23 23-23 23 10.3 23 23-10.3 23-23 23z" fill="#FF69B4" />
  <path d="M60 40c-3.2-3.2-7.5-5.1-12.4-5.1-4.8 0-9.2 1.9-12.4 5.1-3.2 3.2-5.1 7.5-5.1 12.4 0 4.8 1.9 9.2 5.1 12.4 3.2 3.2 7.5 5.1 12.4 5.1 4.8 0 9.2-1.9 12.4-5.1 3.2-3.2 5.1-7.5 5.1-12.4 0-4.8-1.9-9.2-5.1-12.4zM48 64.9c-6.9 0-12.5-5.6-12.5-12.5S41.1 39.9 48 39.9s12.5 5.6 12.5 12.5S54.9 64.9 48 64.9z" fill="#FF69B4" />
  <circle cx="48" cy="52.4" r="7.6" fill="#FF69B4" />
</svg>