<?xml version="1.0" encoding="UTF-8" standalone="no"?>
<svg width="1080" height="1920" viewBox="0 0 1080 1920" xmlns="http://www.w3.org/2000/svg">
  <!-- Fundo da tela -->
  <rect width="1080" height="1920" fill="#FFFFFF"/>
  
  <!-- Barra de status -->
  <rect width="1080" height="80" fill="#F8F8F8"/>
  <text x="540" y="50" font-family="Arial" font-size="28" text-anchor="middle" fill="#333333">Acompanhar Pedido</text>
  <circle cx="50" cy="40" r="20" fill="none" stroke="#333333" stroke-width="2"/>
  <polyline points="40,40 50,30 60,40" fill="none" stroke="#333333" stroke-width="2"/>
  
  <!-- Cabeçalho do pedido -->
  <rect y="80" width="1080" height="120" fill="#FFE4E1"/>
  <text x="50" y="120" font-family="Arial" font-size="24" font-weight="bold" fill="#333333">Pedido #12345</text>
  <text x="50" y="160" font-family="Arial" font-size="20" fill="#666666">Maria Confeitaria • Bolo de Chocolate</text>
  <rect x="880" y="110" width="150" height="60" rx="10" ry="10" fill="#FF69B4"/>
  <text x="955" y="145" font-family="Arial" font-size="18" font-weight="bold" text-anchor="middle" fill="#FFFFFF">A CAMINHO</text>
  
  <!-- Mapa de entrega -->
  <rect x="40" y="220" width="1000" height="500" rx="10" ry="10" fill="#F0F0F0"/>
  
  <!-- Elementos do mapa -->
  <rect x="40" y="220" width="1000" height="500" rx="10" ry="10" fill="#E8F4F8"/>
  
  <!-- Ruas no mapa -->
  <rect x="140" y="320" width="800" height="30" fill="#FFFFFF" stroke="#CCCCCC"/>
  <rect x="140" y="450" width="800" height="30" fill="#FFFFFF" stroke="#CCCCCC"/>
  <rect x="140" y="580" width="800" height="30" fill="#FFFFFF" stroke="#CCCCCC"/>
  <rect x="240" y="250" width="30" height="400" fill="#FFFFFF" stroke="#CCCCCC"/>
  <rect x="440" y="250" width="30" height="400" fill="#FFFFFF" stroke="#CCCCCC"/>
  <rect x="640" y="250" width="30" height="400" fill="#FFFFFF" stroke="#CCCCCC"/>
  <rect x="840" y="250" width="30" height="400" fill="#FFFFFF" stroke="#CCCCCC"/>
  
  <!-- Rota de entrega -->
  <path d="M240,580 L240,450 L440,450 L440,320 L640,320 L640,450 L840,450" fill="none" stroke="#FF69B4" stroke-width="8" stroke-dasharray="0"/>
  
  <!-- Ponto de partida (confeitaria) -->
  <circle cx="240" cy="580" r="15" fill="#FF69B4"/>
  <text x="240" y="620" font-family="Arial" font-size="14" text-anchor="middle" fill="#333333">Confeitaria</text>
  
  <!-- Ponto de entrega (cliente) -->
  <circle cx="840" cy="450" r="15" fill="#333333"/>
  <text x="840" y="490" font-family="Arial" font-size="14" text-anchor="middle" fill="#333333">Seu endereço</text>
  
  <!-- Localização atual do entregador -->
  <circle cx="640" cy="450" r="20" fill="#FF69B4"/>
  <polygon points="640,420 620,450 640,480 660,450" fill="#FF69B4"/>
  
  <!-- Barra de progresso -->
  <rect x="40" y="750" width="1000" height="30" rx="15" ry="15" fill="#F0F0F0"/>
  <rect x="40" y="750" width="750" height="30" rx="15" ry="15" fill="#FF69B4"/>
  
  <!-- Status de entrega -->
  <text x="40" y="820" font-family="Arial" font-size="24" font-weight="bold" fill="#333333">Chegará em aproximadamente 12 minutos</text>
  
  <!-- Etapas de entrega -->
  <circle cx="80" cy="880" r="20" fill="#FF69B4"/>
  <text x="80" y="885" font-family="Arial" font-size="16" text-anchor="middle" fill="#FFFFFF">✓</text>
  <line x1="80" y1="900" x2="80" y2="960" stroke="#FF69B4" stroke-width="2"/>
  <text x="120" y="885" font-family="Arial" font-size="20" fill="#333333">Pedido confirmado</text>
  <text x="120" y="915" font-family="Arial" font-size="16" fill="#666666">10:15</text>
  
  <circle cx="80" cy="980" r="20" fill="#FF69B4"/>
  <text x="80" y="985" font-family="Arial" font-size="16" text-anchor="middle" fill="#FFFFFF">✓</text>
  <line x1="80" y1="1000" x2="80" y2="1060" stroke="#FF69B4" stroke-width="2"/>
  <text x="120" y="985" font-family="Arial" font-size="20" fill="#333333">Em preparação</text>
  <text x="120" y="1015" font-family="Arial" font-size="16" fill="#666666">10:20</text>
  
  <circle cx="80" cy="1080" r="20" fill="#FF69B4"/>
  <text x="80" y="1085" font-family="Arial" font-size="16" text-anchor="middle" fill="#FFFFFF">✓</text>
  <line x1="80" y1="1100" x2="80" y2="1160" stroke="#CCCCCC" stroke-width="2"/>
  <text x="120" y="1085" font-family="Arial" font-size="20" fill="#333333">Saiu para entrega</text>
  <text x="120" y="1115" font-family="Arial" font-size="16" fill="#666666">10:45</text>
  
  <circle cx="80" cy="1180" r="20" fill="#F0F0F0" stroke="#CCCCCC" stroke-width="2"/>
  <text x="120" y="1185" font-family="Arial" font-size="20" fill="#999999">Entregue</text>
  <text x="120" y="1215" font-family="Arial" font-size="16" fill="#999999">Previsto: 10:57</text>
  
  <!-- Informações do entregador -->
  <rect x="40" y="1280" width="1000" height="150" rx="10" ry="10" fill="#F8F8F8"/>
  <circle cx="120" cy="1355" r="50" fill="#DDDDDD"/>
  <text x="120" y="1365" font-family="Arial" font-size="20" text-anchor="middle" fill="#666666">Foto</text>
  <text x="200" y="1335" font-family="Arial" font-size="24" font-weight="bold" fill="#333333">Carlos Silva</text>
  <text x="200" y="1375" font-family="Arial" font-size="20" fill="#666666">Entregador • 4.9 ★</text>
  
  <!-- Botões de ação -->
  <rect x="700" y="1330" width="150" height="50" rx="25" ry="25" fill="#FFFFFF" stroke="#FF69B4" stroke-width="2"/>
  <text x="775" y="1360" font-family="Arial" font-size="18" text-anchor="middle" fill="#FF69B4">Mensagem</text>
  
  <rect x="870" y="1330" width="150" height="50" rx="25" ry="25" fill="#FF69B4"/>
  <text x="945" y="1360" font-family="Arial" font-size="18" text-anchor="middle" fill="#FFFFFF">Ligar</text>
  
  <!-- Resumo do pedido -->
  <text x="40" y="1480" font-family="Arial" font-size="24" font-weight="bold" fill="#333333">Resumo do Pedido</text>
  
  <rect x="40" y="1520" width="1000" height="100" rx="10" ry="10" fill="#F8F8F8"/>
  <text x="100" y="1570" font-family="Arial" font-size="20" fill="#333333">1x Bolo de Chocolate sem lactose com morangos</text>
  <text x="900" y="1570" font-family="Arial" font-size="20" text-anchor="end" fill="#333333">R$ 104,90</text>
  
  <rect x="40" y="1640" width="1000" height="60" rx="10" ry="10" fill="#FFFFFF"/>
  <text x="100" y="1680" font-family="Arial" font-size="20" font-weight="bold" fill="#333333">Total</text>
  <text x="900" y="1680" font-family="Arial" font-size="20" font-weight="bold" text-anchor="end" fill="#333333">R$ 104,90</text>
  
  <!-- Barra de navegação inferior -->
  <rect y="1820" width="1080" height="100" fill="#FFE4E1"/>
  
  <!-- Ícone Home -->
  <circle cx="180" cy="1870" r="30" fill="none" stroke="#333333" stroke-width="2"/>
  <polyline points="160,1870 180,1850 200,1870" fill="none" stroke="#333333" stroke-width="2"/>
  <line x1="180" y1="1850" x2="180" y2="1890" stroke="#333333" stroke-width="2"/>
  
  <!-- Ícone Busca -->
  <circle cx="360" cy="1870" r="25" fill="none" stroke="#333333" stroke-width="2"/>
  <line x1="378" y1="1888" x2="390" y2="1900" stroke="#333333" stroke-width="3"/>
  
  <!-- Ícone Chat -->
  <rect x="520" y="1845" width="40" height="50" rx="5" ry="5" fill="none" stroke="#333333" stroke-width="2"/>
  <line x1="520" y1="1860" x2="560" y2="1860" stroke="#333333" stroke-width="2"/>
  <line x1="520" y1="1875" x2="560" y2="1875" stroke="#333333" stroke-width="2"/>
  <line x1="520" y1="1890" x2="540" y2="1890" stroke="#333333" stroke-width="2"/>
  
  <!-- Ícone Pedidos (ativo) -->
  <rect x="700" y="1845" width="40" height="50" rx="5" ry="5" fill="#FF69B4"/>
  <line x1="700" y1="1860" x2="740" y2="1860" stroke="#FFFFFF" stroke-width="2"/>
  <line x1="700" y1="1875" x2="740" y2="1875" stroke="#FFFFFF" stroke-width="2"/>
  <line x1="700" y1="1890" x2="740" y2="1890" stroke="#FFFFFF" stroke-width="2"/>
  
  <!-- Ícone Perfil -->
  <circle cx="900" cy="1870" r="25" fill="none" stroke="#333333" stroke-width="2"/>
  <circle cx="900" cy="1855" r="10" fill="none" stroke="#333333" stroke-width="2"/>
  <path d="M875,1890 Q900,1875 925,1890" fill="none" stroke="#333333" stroke-width="2"/>
</svg>