<?xml version="1.0" encoding="UTF-8" standalone="no"?>
<svg width="1080" height="1920" viewBox="0 0 1080 1920" xmlns="http://www.w3.org/2000/svg">
  <!-- Fundo do aplicativo -->
  <rect width="1080" height="1920" fill="#FFFFFF"/>
  
  <!-- Barra de status -->
  <rect width="1080" height="80" fill="#e91e63" />
  <text x="540" y="50" font-family="Roboto, sans-serif" font-size="28" fill="white" text-anchor="middle">Detalhes do Produto</text>
  
  <!-- Botão voltar -->
  <circle cx="50" cy="40" r="20" fill="#e91e63" stroke="white" stroke-width="2"/>
  <polyline points="45,40 35,30 45,20" fill="none" stroke="white" stroke-width="2"/>
  
  <!-- Imagem do produto -->
  <rect x="40" y="100" width="1000" height="500" rx="10" ry="10" fill="#fce4ec"/>
  <circle cx="540" cy="350" r="150" fill="#f8bbd0"/>
  <text x="540" y="350" font-family="Roboto, sans-serif" font-size="24" fill="#e91e63" text-anchor="middle">Imagem do Bolo</text>
  
  <!-- Informações do produto -->
  <text x="40" y="650" font-family="Roboto, sans-serif" font-size="36" font-weight="bold" fill="#333333">Bolo de Chocolate com Morango</text>
  <text x="40" y="700" font-family="Roboto, sans-serif" font-size="24" fill="#757575">Doces da Maria</text>
  
  <!-- Avaliação -->
  <text x="40" y="750" font-family="Roboto, sans-serif" font-size="24" fill="#333333">⭐ 4.8 (124 avaliações)</text>
  
  <!-- Preço -->
  <text x="40" y="800" font-family="Roboto, sans-serif" font-size="36" font-weight="bold" fill="#e91e63">R$ 65,00</text>
  
  <!-- Descrição -->
  <rect x="40" y="850" width="1000" height="2" fill="#e0e0e0"/>
  <text x="40" y="900" font-family="Roboto, sans-serif" font-size="28" font-weight="bold" fill="#333333">Descrição</text>
  <text x="40" y="950" font-family="Roboto, sans-serif" font-size="22" fill="#757575">Delicioso bolo de chocolate com recheio de creme de chocolate e cobertura de ganache com morangos frescos. Ideal para 10-12 pessoas.</text>
  
  <!-- Informações adicionais -->
  <rect x="40" y="1050" width="1000" height="2" fill="#e0e0e0"/>
  <text x="40" y="1100" font-family="Roboto, sans-serif" font-size="28" font-weight="bold" fill="#333333">Informações</text>
  
  <text x="40" y="1150" font-family="Roboto, sans-serif" font-size="22" fill="#757575">🕒 Tempo de preparo: 2-3 horas</text>
  <text x="40" y="1200" font-family="Roboto, sans-serif" font-size="22" fill="#757575">📏 Tamanho: 20cm de diâmetro</text>
  <text x="40" y="1250" font-family="Roboto, sans-serif" font-size="22" fill="#757575">🍽️ Serve: 10-12 pessoas</text>
  <text x="40" y="1300" font-family="Roboto, sans-serif" font-size="22" fill="#757575">🥚 Contém: Glúten, Lactose, Ovos</text>
  
  <!-- Personalização -->
  <rect x="40" y="1350" width="1000" height="2" fill="#e0e0e0"/>
  <text x="40" y="1400" font-family="Roboto, sans-serif" font-size="28" font-weight="bold" fill="#333333">Personalização</text>
  
  <!-- Opção 1 -->
  <rect x="40" y="1430" width="1000" height="60" rx="5" ry="5" fill="#f5f5f5"/>
  <text x="70" y="1470" font-family="Roboto, sans-serif" font-size="22" fill="#333333">Adicionar mensagem personalizada</text>
  <circle cx="1000" cy="1460" r="15" fill="white" stroke="#e91e63" stroke-width="2"/>
  
  <!-- Opção 2 -->
  <rect x="40" y="1510" width="1000" height="60" rx="5" ry="5" fill="#f5f5f5"/>
  <text x="70" y="1550" font-family="Roboto, sans-serif" font-size="22" fill="#333333">Trocar cobertura (+ R$ 10,00)</text>
  <circle cx="1000" cy="1540" r="15" fill="white" stroke="#e91e63" stroke-width="2"/>
  
  <!-- Botões de ação -->
  <rect x="40" y="1620" width="480" height="80" rx="40" ry="40" fill="white" stroke="#e91e63" stroke-width="2"/>
  <text x="280" y="1670" font-family="Roboto, sans-serif" font-size="24" font-weight="bold" fill="#e91e63" text-anchor="middle">Falar com Confeiteiro</text>
  
  <rect x="560" y="1620" width="480" height="80" rx="40" ry="40" fill="#e91e63"/>
  <text x="800" y="1670" font-family="Roboto, sans-serif" font-size="24" font-weight="bold" fill="white" text-anchor="middle">Adicionar ao Carrinho</text>
  
  <!-- Barra de navegação inferior -->
  <rect x="0" y="1820" width="1080" height="100" fill="#e91e63"/>
  
  <!-- Ícones de navegação -->
  <circle cx="180" cy="1870" r="30" fill="#f8bbd0"/>
  <text x="180" y="1920" font-family="Roboto, sans-serif" font-size="18" fill="#ffffff" text-anchor="middle">Início</text>
  
  <circle cx="360" cy="1870" r="30" fill="#f8bbd0"/>
  <text x="360" y="1920" font-family="Roboto, sans-serif" font-size="18" fill="#ffffff" text-anchor="middle">Buscar</text>
  
  <circle cx="540" cy="1870" r="30" fill="#f8bbd0"/>
  <text x="540" y="1920" font-family="Roboto, sans-serif" font-size="18" fill="#ffffff" text-anchor="middle">Pedidos</text>
  
  <circle cx="720" cy="1870" r="30" fill="#f8bbd0"/>
  <text x="720" y="1920" font-family="Roboto, sans-serif" font-size="18" fill="#ffffff" text-anchor="middle">Chat</text>
  
  <circle cx="900" cy="1870" r="30" fill="#f8bbd0"/>
  <text x="900" y="1920" font-family="Roboto, sans-serif" font-size="18" fill="#ffffff" text-anchor="middle">Perfil</text>
</svg>