<?xml version="1.0" encoding="UTF-8" standalone="no"?>
<svg width="1080" height="1920" viewBox="0 0 1080 1920" xmlns="http://www.w3.org/2000/svg">
  <!-- Fundo da tela -->
  <rect width="1080" height="1920" fill="#FFFFFF"/>
  
  <!-- Barra de status -->
  <rect width="1080" height="80" fill="#F8F8F8"/>
  <text x="540" y="50" font-family="Arial" font-size="28" text-anchor="middle" fill="#333333">12:30</text>
  
  <!-- Cabeçalho -->
  <rect y="80" width="1080" height="120" fill="#FFE4E1"/>
  <text x="540" y="155" font-family="Arial" font-size="36" font-weight="bold" text-anchor="middle" fill="#FF69B4">Meu Perfil</text>
  
  <!-- Informações do usuário -->
  <circle cx="540" cy="350" r="100" fill="#FFC0CB"/>
  <text x="540" y="380" font-family="Arial" font-size="60" font-weight="bold" text-anchor="middle" fill="#FFFFFF">MR</text>
  
  <text x="540" y="500" font-family="Arial" font-size="36" font-weight="bold" text-anchor="middle" fill="#333333">Maria Rodrigues</text>
  <text x="540" y="550" font-family="Arial" font-size="24" text-anchor="middle" fill="#666666">maria.rodrigues@email.com</text>
  
  <rect x="440" y="600" width="200" height="50" rx="25" ry="25" fill="#FF69B4"/>
  <text x="540" y="635" font-family="Arial" font-size="20" font-weight="bold" text-anchor="middle" fill="#FFFFFF">Editar Perfil</text>
  
  <!-- Seções do perfil -->
  <rect x="40" y="700" width="1000" height="80" rx="10" ry="10" fill="#F8F8F8"/>
  <text x="80" y="750" font-family="Arial" font-size="24" fill="#333333">Meus Pedidos</text>
  <text x="960" y="750" font-family="Arial" font-size="24" text-anchor="end" fill="#666666">></text>
  
  <rect x="40" y="800" width="1000" height="80" rx="10" ry="10" fill="#F8F8F8"/>
  <text x="80" y="850" font-family="Arial" font-size="24" fill="#333333">Endereços</text>
  <text x="960" y="850" font-family="Arial" font-size="24" text-anchor="end" fill="#666666">></text>
  
  <rect x="40" y="900" width="1000" height="80" rx="10" ry="10" fill="#F8F8F8"/>
  <text x="80" y="950" font-family="Arial" font-size="24" fill="#333333">Formas de Pagamento</text>
  <text x="960" y="950" font-family="Arial" font-size="24" text-anchor="end" fill="#666666">></text>
  
  <rect x="40" y="1000" width="1000" height="80" rx="10" ry="10" fill="#F8F8F8"/>
  <text x="80" y="1050" font-family="Arial" font-size="24" fill="#333333">Favoritos</text>
  <text x="960" y="1050" font-family="Arial" font-size="24" text-anchor="end" fill="#666666">></text>
  
  <rect x="40" y="1100" width="1000" height="80" rx="10" ry="10" fill="#F8F8F8"/>
  <text x="80" y="1150" font-family="Arial" font-size="24" fill="#333333">Avaliações</text>
  <text x="960" y="1150" font-family="Arial" font-size="24" text-anchor="end" fill="#666666">></text>
  
  <rect x="40" y="1200" width="1000" height="80" rx="10" ry="10" fill="#F8F8F8"/>
  <text x="80" y="1250" font-family="Arial" font-size="24" fill="#333333">Notificações</text>
  <text x="960" y="1250" font-family="Arial" font-size="24" text-anchor="end" fill="#666666">></text>
  
  <rect x="40" y="1300" width="1000" height="80" rx="10" ry="10" fill="#F8F8F8"/>
  <text x="80" y="1350" font-family="Arial" font-size="24" fill="#333333">Ajuda e Suporte</text>
  <text x="960" y="1350" font-family="Arial" font-size="24" text-anchor="end" fill="#666666">></text>
  
  <rect x="40" y="1400" width="1000" height="80" rx="10" ry="10" fill="#F8F8F8"/>
  <text x="80" y="1450" font-family="Arial" font-size="24" fill="#333333">Sobre o App</text>
  <text x="960" y="1450" font-family="Arial" font-size="24" text-anchor="end" fill="#666666">></text>
  
  <rect x="40" y="1500" width="1000" height="80" rx="10" ry="10" fill="#F8F8F8"/>
  <text x="80" y="1550" font-family="Arial" font-size="24" fill="#333333">Política de Privacidade</text>
  <text x="960" y="1550" font-family="Arial" font-size="24" text-anchor="end" fill="#666666">></text>
  
  <rect x="40" y="1600" width="1000" height="80" rx="10" ry="10" fill="#F8F8F8"/>
  <text x="80" y="1650" font-family="Arial" font-size="24" fill="#FF0000">Sair</text>
  
  <!-- Barra de navegação inferior -->
  <rect y="1820" width="1080" height="100" fill="#FFE4E1"/>
  
  <!-- Ícone Home -->
  <circle cx="180" cy="1870" r="30" fill="none" stroke="#333333" stroke-width="2"/>
  <polyline points="160,1870 180,1850 200,1870" fill="none" stroke="#333333" stroke-width="2"/>
  <line x1="180" y1="1850" x2="180" y2="1890" stroke="#333333" stroke-width="2"/>
  
  <!-- Ícone Busca -->
  <circle cx="360" cy="1870" r="25" fill="none" stroke="#333333" stroke-width="2"/>
  <line x1="378" y1="1888" x2="390" y2="1900" stroke="#333333" stroke-width="3"/>
  
  <!-- Ícone Chat -->
  <rect x="520" y="1845" width="40" height="50" rx="5" ry="5" fill="none" stroke="#333333" stroke-width="2"/>
  <line x1="520" y1="1860" x2="560" y2="1860" stroke="#333333" stroke-width="2"/>
  <line x1="520" y1="1875" x2="560" y2="1875" stroke="#333333" stroke-width="2"/>
  <line x1="520" y1="1890" x2="540" y2="1890" stroke="#333333" stroke-width="2"/>
  
  <!-- Ícone Pedidos -->
  <rect x="700" y="1845" width="40" height="50" rx="5" ry="5" fill="none" stroke="#333333" stroke-width="2"/>
  <line x1="700" y1="1860" x2="740" y2="1860" stroke="#333333" stroke-width="2"/>
  <line x1="700" y1="1875" x2="740" y2="1875" stroke="#333333" stroke-width="2"/>
  <line x1="700" y1="1890" x2="740" y2="1890" stroke="#333333" stroke-width="2"/>
  
  <!-- Ícone Perfil (ativo) -->
  <circle cx="900" cy="1870" r="25" fill="#FF69B4"/>
  <circle cx="900" cy="1855" r="10" fill="#FFFFFF"/>
  <path d="M875,1890 Q900,1875 925,1890" fill="#FFFFFF"/>
</svg>