<?xml version="1.0" encoding="UTF-8" standalone="no"?>
<svg width="1080" height="1920" viewBox="0 0 1080 1920" xmlns="http://www.w3.org/2000/svg">
  <!-- Fundo da tela -->
  <rect width="1080" height="1920" fill="#FFFFFF"/>
  
  <!-- Barra de status -->
  <rect width="1080" height="80" fill="#F8F8F8"/>
  <text x="540" y="50" font-family="Arial" font-size="28" text-anchor="middle" fill="#333333">12:30</text>
  
  <!-- Cabeçalho -->
  <rect y="80" width="1080" height="120" fill="#FFE4E1"/>
  <text x="540" y="155" font-family="Arial" font-size="36" font-weight="bold" text-anchor="middle" fill="#FF69B4">Promoções</text>
  
  <!-- Botão voltar -->
  <circle cx="60" cy="140" r="30" fill="#FFFFFF"/>
  <polyline points="70,120 50,140 70,160" fill="none" stroke="#333333" stroke-width="3"/>
  
  <!-- Banner principal -->
  <rect x="40" y="220" width="1000" height="300" rx="15" ry="15" fill="#FFC0CB"/>
  <text x="540" y="320" font-family="Arial" font-size="40" font-weight="bold" text-anchor="middle" fill="#FFFFFF">Dia das Mães</text>
  <text x="540" y="380" font-family="Arial" font-size="30" text-anchor="middle" fill="#FFFFFF">Até 15% de desconto</text>
  <text x="540" y="430" font-family="Arial" font-size="24" text-anchor="middle" fill="#FFFFFF">Válido até 14/05/2023</text>
  
  <!-- Promoção 1 -->
  <rect x="40" y="540" width="1000" height="200" rx="15" ry="15" fill="#FFE4E1"/>
  <rect x="60" y="560" width="160" height="160" rx="10" ry="10" fill="#D2691E"/>
  
  <text x="240" y="600" font-family="Arial" font-size="24" font-weight="bold" fill="#333333">Bolo de Chocolate com Morangos</text>
  <text x="240" y="640" font-family="Arial" font-size="20" fill="#666666">De R$ 89,90 por</text>
  <text x="240" y="680" font-family="Arial" font-size="28" font-weight="bold" fill="#FF69B4">R$ 76,40</text>
  <text x="380" y="680" font-family="Arial" font-size="20" fill="#FF69B4">(-15%)</text>
  
  <rect x="900" y="620" width="100" height="50" rx="25" ry="25" fill="#FF69B4"/>
  <text x="950" y="650" font-family="Arial" font-size="18" text-anchor="middle" fill="#FFFFFF">Pedir</text>
  
  <!-- Promoção 2 -->
  <rect x="40" y="760" width="1000" height="200" rx="15" ry="15" fill="#FFE4E1"/>
  <rect x="60" y="780" width="160" height="160" rx="10" ry="10" fill="#FFB6C1"/>
  
  <text x="240" y="820" font-family="Arial" font-size="24" font-weight="bold" fill="#333333">Cupcakes (6 unidades)</text>
  <text x="240" y="860" font-family="Arial" font-size="20" fill="#666666">De R$ 42,00 por</text>
  <text x="240" y="900" font-family="Arial" font-size="28" font-weight="bold" fill="#FF69B4">R$ 35,70</text>
  <text x="380" y="900" font-family="Arial" font-size="20" fill="#FF69B4">(-15%)</text>
  
  <rect x="900" y="840" width="100" height="50" rx="25" ry="25" fill="#FF69B4"/>
  <text x="950" y="870" font-family="Arial" font-size="18" text-anchor="middle" fill="#FFFFFF">Pedir</text>
  
  <!-- Promoção 3 -->
  <rect x="40" y="980" width="1000" height="200" rx="15" ry="15" fill="#FFE4E1"/>
  <rect x="60" y="1000" width="160" height="160" rx="10" ry="10" fill="#FFDAB9"/>
  
  <text x="240" y="1040" font-family="Arial" font-size="24" font-weight="bold" fill="#333333">Torta de Limão</text>
  <text x="240" y="1080" font-family="Arial" font-size="20" fill="#666666">De R$ 75,00 por</text>
  <text x="240" y="1120" font-family="Arial" font-size="28" font-weight="bold" fill="#FF69B4">R$ 63,75</text>
  <text x="380" y="1120" font-family="Arial" font-size="20" fill="#FF69B4">(-15%)</text>
  
  <rect x="900" y="1060" width="100" height="50" rx="25" ry="25" fill="#FF69B4"/>
  <text x="950" y="1090" font-family="Arial" font-size="18" text-anchor="middle" fill="#FFFFFF">Pedir</text>
  
  <!-- Cupons disponíveis -->
  <text x="40" y="1230" font-family="Arial" font-size="28" font-weight="bold" fill="#333333">Cupons disponíveis</text>
  
  <!-- Cupom 1 -->
  <rect x="40" y="1270" width="1000" height="150" rx="15" ry="15" fill="#F8F8F8"/>
  <rect x="40" y="1270" width="15" height="150" rx="0" ry="0" fill="#FF69B4"/>
  <text x="80" y="1320" font-family="Arial" font-size="24" font-weight="bold" fill="#333333">FRETEGRATIS</text>
  <text x="80" y="1360" font-family="Arial" font-size="20" fill="#666666">Frete grátis em pedidos acima de R$ 120,00</text>
  <text x="900" y="1340" font-family="Arial" font-size="18" fill="#FF69B4">Usar</text>
  
  <!-- Cupom 2 -->
  <rect x="40" y="1440" width="1000" height="150" rx="15" ry="15" fill="#F8F8F8"/>
  <rect x="40" y="1440" width="15" height="150" rx="0" ry="0" fill="#FF69B4"/>
  <text x="80" y="1490" font-family="Arial" font-size="24" font-weight="bold" fill="#333333">BEMVINDO10</text>
  <text x="80" y="1530" font-family="Arial" font-size="20" fill="#666666">10% de desconto no primeiro pedido</text>
  <text x="900" y="1510" font-family="Arial" font-size="18" fill="#FF69B4">Usar</text>
  
  <!-- Cupom 3 -->
  <rect x="40" y="1610" width="1000" height="150" rx="15" ry="15" fill="#F8F8F8"/>
  <rect x="40" y="1610" width="15" height="150" rx="0" ry="0" fill="#FF69B4"/>
  <text x="80" y="1660" font-family="Arial" font-size="24" font-weight="bold" fill="#333333">MAES15</text>
  <text x="80" y="1700" font-family="Arial" font-size="20" fill="#666666">15% de desconto em bolos e tortas</text>
  <text x="900" y="1680" font-family="Arial" font-size="18" fill="#FF69B4">Usar</text>
  
  <!-- Barra de navegação inferior -->
  <rect y="1820" width="1080" height="100" fill="#FFE4E1"/>
  
  <!-- Ícone Home -->
  <circle cx="180" cy="1870" r="30" fill="none" stroke="#333333" stroke-width="2"/>
  <polyline points="160,1870 180,1850 200,1870" fill="none" stroke="#333333" stroke-width="2"/>
  <line x1="180" y1="1850" x2="180" y2="1890" stroke="#333333" stroke-width="2"/>
  
  <!-- Ícone Busca -->
  <circle cx="360" cy="1870" r="25" fill="none" stroke="#333333" stroke-width="2"/>
  <line x1="378" y1="1888" x2="390" y2="1900" stroke="#333333" stroke-width="3"/>
  
  <!-- Ícone Chat -->
  <rect x="520" y="1845" width="40" height="50" rx="5" ry="5" fill="none" stroke="#333333" stroke-width="2"/>
  <line x1="520" y1="1860" x2="560" y2="1860" stroke="#333333" stroke-width="2"/>
  <line x1="520" y1="1875" x2="560" y2="1875" stroke="#333333" stroke-width="2"/>
  <line x1="520" y1="1890" x2="540" y2="1890" stroke="#333333" stroke-width="2"/>
  
  <!-- Ícone Pedidos -->
  <rect x="700" y="1845" width="40" height="50" rx="5" ry="5" fill="none" stroke="#333333" stroke-width="2"/>
  <line x1="700" y1="1860" x2="740" y2="1860" stroke="#333333" stroke-width="2"/>
  <line x1="700" y1="1875" x2="740" y2="1875" stroke="#333333" stroke-width="2"/>
  <line x1="700" y1="1890" x2="740" y2="1890" stroke="#333333" stroke-width="2"/>
  
  <!-- Ícone Perfil -->
  <circle cx="900" cy="1870" r="25" fill="none" stroke="#333333" stroke-width="2"/>
  <circle cx="900" cy="1855" r="10" fill="none" stroke="#333333" stroke-width="2"/>
  <path d="M875,1890 Q900,1875 925,1890" fill="none" stroke="#333333" stroke-width="2"/>
</svg>