<svg xmlns="http://www.w3.org/2000/svg" width="1080" height="1920" viewBox="0 0 1080 1920">
  <!-- Background -->
  <rect width="1080" height="1920" fill="#f5f5f5"/>
  
  <!-- Device Frame -->
  <rect x="30" y="30" width="1020" height="1860" rx="30" ry="30" fill="white" stroke="#e0e0e0" stroke-width="2"/>
  
  <!-- Status Bar -->
  <rect x="30" y="30" width="1020" height="60" rx="30" ry="30" fill="#FF69B4"/>
  <text x="540" y="70" font-family="Arial" font-size="20" fill="white" text-anchor="middle" font-weight="bold">10:30</text>
  <rect x="440" y="40" width="200" height="25" rx="12.5" ry="12.5" fill="black"/>
  <text x="950" y="70" font-family="Arial" font-size="20" fill="white" font-weight="bold">100%</text>
  
  <!-- App Header -->
  <rect x="30" y="90" width="1020" height="110" fill="white" stroke="#EEE" stroke-width="1"/>
  <text x="60" y="155" font-family="Arial" font-size="32" fill="#FF69B4" font-weight="bold">Catálogo</text>
  
  <!-- Search Bar -->
  <rect x="50" y="220" width="980" height="60" rx="30" ry="30" fill="white" stroke="#e0e0e0" stroke-width="2"/>
  <text x="100" y="260" font-family="Arial" font-size="20" fill="#999">Buscar produtos...</text>
  <circle cx="70" cy="250" r="15" fill="none" stroke="#999" stroke-width="2"/>
  
  <!-- Categories -->
  <text x="50" y="320" font-family="Arial" font-size="24" fill="#333" font-weight="bold">Categorias</text>
  
  <!-- Category Pills -->
  <rect x="50" y="340" width="150" height="50" rx="25" ry="25" fill="#FF69B4"/>
  <text x="125" y="372" font-family="Arial" font-size="18" fill="white" text-anchor="middle" font-weight="bold">Bolos</text>
  
  <rect x="220" y="340" width="150" height="50" rx="25" ry="25" fill="white" stroke="#FF69B4" stroke-width="2"/>
  <text x="295" y="372" font-family="Arial" font-size="18" fill="#FF69B4" text-anchor="middle" font-weight="bold">Doces</text>
  
  <rect x="390" y="340" width="150" height="50" rx="25" ry="25" fill="white" stroke="#FF69B4" stroke-width="2"/>
  <text x="465" y="372" font-family="Arial" font-size="18" fill="#FF69B4" text-anchor="middle" font-weight="bold">Tortas</text>
  
  <rect x="560" y="340" width="150" height="50" rx="25" ry="25" fill="white" stroke="#FF69B4" stroke-width="2"/>
  <text x="635" y="372" font-family="Arial" font-size="18" fill="#FF69B4" text-anchor="middle" font-weight="bold">Cookies</text>
  
  <rect x="730" y="340" width="150" height="50" rx="25" ry="25" fill="white" stroke="#FF69B4" stroke-width="2"/>
  <text x="805" y="372" font-family="Arial" font-size="18" fill="#FF69B4" text-anchor="middle" font-weight="bold">Especiais</text>
  
  <!-- Products List -->
  <text x="50" y="430" font-family="Arial" font-size="24" fill="#333" font-weight="bold">Bolos</text>
  
  <!-- Product 1 -->
  <rect x="50" y="450" width="980" height="200" rx="15" ry="15" fill="white" stroke="#e0e0e0" stroke-width="1"/>
  <rect x="50" y="450" width="200" height="200" rx="15" ry="15" fill="#FFE6F2"/>
  <text x="150" y="550" font-family="Arial" font-size="50" fill="#FF69B4" text-anchor="middle">🎂</text>
  <text x="270" y="510" font-family="Arial" font-size="22" fill="#333" font-weight="bold">Bolo de Chocolate</text>
  <text x="270" y="545" font-family="Arial" font-size="18" fill="#666">Delicioso bolo de chocolate com cobertura especial</text>
  <text x="270" y="580" font-family="Arial" font-size="20" fill="#FF69B4" font-weight="bold">R$ 59,90</text>
  <rect x="880" y="530" width="120" height="40" rx="20" ry="20" fill="#FF69B4"/>
  <text x="940" y="555" font-family="Arial" font-size="16" fill="white" text-anchor="middle" font-weight="bold">Adicionar</text>
  
  <!-- Product 2 -->
  <rect x="50" y="670" width="980" height="200" rx="15" ry="15" fill="white" stroke="#e0e0e0" stroke-width="1"/>
  <rect x="50" y="670" width="200" height="200" rx="15" ry="15" fill="#FFE6F2"/>
  <text x="150" y="770" font-family="Arial" font-size="50" fill="#FF69B4" text-anchor="middle">🎂</text>
  <text x="270" y="730" font-family="Arial" font-size="22" fill="#333" font-weight="bold">Bolo Red Velvet</text>
  <text x="270" y="765" font-family="Arial" font-size="18" fill="#666">Bolo vermelho aveludado com cream cheese</text>
  <text x="270" y="800" font-family="Arial" font-size="20" fill="#FF69B4" font-weight="bold">R$ 69,90</text>
  <rect x="880" y="750" width="120" height="40" rx="20" ry="20" fill="#FF69B4"/>
  <text x="940" y="775" font-family="Arial" font-size="16" fill="white" text-anchor="middle" font-weight="bold">Adicionar</text>
  
  <!-- Product 3 -->
  <rect x="50" y="890" width="980" height="200" rx="15" ry="15" fill="white" stroke="#e0e0e0" stroke-width="1"/>
  <rect x="50" y="890" width="200" height="200" rx="15" ry="15" fill="#FFE6F2"/>
  <text x="150" y="990" font-family="Arial" font-size="50" fill="#FF69B4" text-anchor="middle">🎂</text>
  <text x="270" y="950" font-family="Arial" font-size="22" fill="#333" font-weight="bold">Bolo de Cenoura</text>
  <text x="270" y="985" font-family="Arial" font-size="18" fill="#666">Bolo de cenoura com cobertura de chocolate</text>
  <text x="270" y="1020" font-family="Arial" font-size="20" fill="#FF69B4" font-weight="bold">R$ 49,90</text>
  <rect x="880" y="970" width="120" height="40" rx="20" ry="20" fill="#FF69B4"/>
  <text x="940" y="995" font-family="Arial" font-size="16" fill="white" text-anchor="middle" font-weight="bold">Adicionar</text>
  
  <!-- Product 4 -->
  <rect x="50" y="1110" width="980" height="200" rx="15" ry="15" fill="white" stroke="#e0e0e0" stroke-width="1"/>
  <rect x="50" y="1110" width="200" height="200" rx="15" ry="15" fill="#FFE6F2"/>
  <text x="150" y="1210" font-family="Arial" font-size="50" fill="#FF69B4" text-anchor="middle">🎂</text>
  <text x="270" y="1170" font-family="Arial" font-size="22" fill="#333" font-weight="bold">Bolo de Coco</text>
  <text x="270" y="1205" font-family="Arial" font-size="18" fill="#666">Bolo de coco com cobertura de coco ralado</text>
  <text x="270" y="1240" font-family="Arial" font-size="20" fill="#FF69B4" font-weight="bold">R$ 54,90</text>
  <rect x="880" y="1190" width="120" height="40" rx="20" ry="20" fill="#FF69B4"/>
  <text x="940" y="1215" font-family="Arial" font-size="16" fill="white" text-anchor="middle" font-weight="bold">Adicionar</text>
  
  <!-- Product 5 -->
  <rect x="50" y="1330" width="980" height="200" rx="15" ry="15" fill="white" stroke="#e0e0e0" stroke-width="1"/>
  <rect x="50" y="1330" width="200" height="200" rx="15" ry="15" fill="#FFE6F2"/>
  <text x="150" y="1430" font-family="Arial" font-size="50" fill="#FF69B4" text-anchor="middle">🎂</text>
  <text x="270" y="1390" font-family="Arial" font-size="22" fill="#333" font-weight="bold">Bolo de Morango</text>
  <text x="270" y="1425" font-family="Arial" font-size="18" fill="#666">Bolo com recheio e cobertura de morango</text>
  <text x="270" y="1460" font-family="Arial" font-size="20" fill="#FF69B4" font-weight="bold">R$ 64,90</text>
  <rect x="880" y="1410" width="120" height="40" rx="20" ry="20" fill="#FF69B4"/>
  <text x="940" y="1435" font-family="Arial" font-size="16" fill="white" text-anchor="middle" font-weight="bold">Adicionar</text>
  
  <!-- Bottom Navigation -->
  <rect x="30" y="1830" width="1020" height="60" fill="white" stroke="#EEE" stroke-width="1"/>
  <text x="150" y="1870" font-family="Arial" font-size="14" fill="#999" text-anchor="middle">Início</text>
  <text x="390" y="1870" font-family="Arial" font-size="14" fill="#FF69B4" text-anchor="middle">Catálogo</text>
  <text x="630" y="1870" font-family="Arial" font-size="14" fill="#999" text-anchor="middle">Carrinho</text>
  <text x="870" y="1870" font-family="Arial" font-size="14" fill="#999" text-anchor="middle">Perfil</text>
</svg>