<?xml version="1.0" encoding="UTF-8" standalone="no"?>
<svg width="1080" height="1920" viewBox="0 0 1080 1920" xmlns="http://www.w3.org/2000/svg">
  <!-- Fundo da tela -->
  <rect width="1080" height="1920" fill="#FFFFFF"/>
  
  <!-- Barra de status -->
  <rect width="1080" height="80" fill="#F8F8F8"/>
  <text x="540" y="50" font-family="Arial" font-size="28" text-anchor="middle" fill="#333333">12:30</text>
  
  <!-- Cabeçalho do app -->
  <rect y="80" width="1080" height="120" fill="#FFE4E1"/>
  <text x="40" y="155" font-family="Arial" font-size="36" font-weight="bold" fill="#FF69B4">Açucaradas</text>
  
  <!-- Ícones do cabeçalho -->
  <circle cx="950" cy="140" r="25" fill="none" stroke="#FF69B4" stroke-width="2"/>
  <line x1="968" y1="158" x2="980" y2="170" stroke="#FF69B4" stroke-width="3"/>
  
  <circle cx="1020" cy="140" r="25" fill="none" stroke="#FF69B4" stroke-width="2"/>
  <line x1="1005" y1="140" x2="1035" y2="140" stroke="#FF69B4" stroke-width="2"/>
  <line x1="1020" y1="125" x2="1020" y2="155" stroke="#FF69B4" stroke-width="2"/>
  
  <!-- Banner promocional -->
  <rect x="40" y="220" width="1000" height="300" rx="15" ry="15" fill="#FFC0CB"/>
  <text x="540" y="320" font-family="Arial" font-size="40" font-weight="bold" text-anchor="middle" fill="#FFFFFF">Doces Especiais</text>
  <text x="540" y="380" font-family="Arial" font-size="30" text-anchor="middle" fill="#FFFFFF">Encomende para o Dia das Mães</text>
  <text x="540" y="430" font-family="Arial" font-size="24" text-anchor="middle" fill="#FFFFFF">Até 15% de desconto</text>
  
  <!-- Categorias -->
  <text x="40" y="570" font-family="Arial" font-size="28" font-weight="bold" fill="#333333">Categorias</text>
  
  <!-- Categoria 1 -->
  <rect x="40" y="590" width="200" height="200" rx="15" ry="15" fill="#FFB6C1"/>
  <circle cx="140" cy="670" r="60" fill="#FF69B4"/>
  <text x="140" y="780" font-family="Arial" font-size="22" text-anchor="middle" fill="#333333">Bolos</text>
  
  <!-- Categoria 2 -->
  <rect x="260" y="590" width="200" height="200" rx="15" ry="15" fill="#FFB6C1"/>
  <circle cx="360" cy="670" r="60" fill="#FF69B4"/>
  <text x="360" y="780" font-family="Arial" font-size="22" text-anchor="middle" fill="#333333">Docinhos</text>
  
  <!-- Categoria 3 -->
  <rect x="480" y="590" width="200" height="200" rx="15" ry="15" fill="#FFB6C1"/>
  <circle cx="580" cy="670" r="60" fill="#FF69B4"/>
  <text x="580" y="780" font-family="Arial" font-size="22" text-anchor="middle" fill="#333333">Tortas</text>
  
  <!-- Categoria 4 -->
  <rect x="700" y="590" width="200" height="200" rx="15" ry="15" fill="#FFB6C1"/>
  <circle cx="800" cy="670" r="60" fill="#FF69B4"/>
  <text x="800" y="780" font-family="Arial" font-size="22" text-anchor="middle" fill="#333333">Cupcakes</text>
  
  <!-- Confeiteiros em destaque -->
  <text x="40" y="840" font-family="Arial" font-size="28" font-weight="bold" fill="#333333">Confeiteiros em destaque</text>
  
  <!-- Confeiteiro 1 -->
  <rect x="40" y="860" width="480" height="220" rx="15" ry="15" fill="#F8F8F8"/>
  <circle cx="120" cy="930" r="50" fill="#FFC0CB"/>
  <text x="120" y="940" font-family="Arial" font-size="24" text-anchor="middle" fill="#FFFFFF">MC</text>
  <text x="200" y="900" font-family="Arial" font-size="24" font-weight="bold" fill="#333333">Maria Confeitaria</text>
  <text x="200" y="930" font-family="Arial" font-size="18" fill="#666666">Especialista em bolos</text>
  
  <!-- Estrelas -->
  <polygon points="200,960 210,980 230,985 215,1000 220,1020 200,1010 180,1020 185,1000 170,985 190,980" fill="#FFD700" width="15" height="15"/>
  <polygon points="240,960 250,980 270,985 255,1000 260,1020 240,1010 220,1020 225,1000 210,985 230,980" fill="#FFD700" width="15" height="15"/>
  <polygon points="280,960 290,980 310,985 295,1000 300,1020 280,1010 260,1020 265,1000 250,985 270,980" fill="#FFD700" width="15" height="15"/>
  <polygon points="320,960 330,980 350,985 335,1000 340,1020 320,1010 300,1020 305,1000 290,985 310,980" fill="#FFD700" width="15" height="15"/>
  <polygon points="360,960 370,980 390,985 375,1000 380,1020 360,1010 340,1020 345,1000 330,985 350,980" fill="#FFD700" width="15" height="15"/>
  
  <text x="410" y="980" font-family="Arial" font-size="18" fill="#666666">(127)</text>
  
  <!-- Confeiteiro 2 -->
  <rect x="540" y="860" width="480" height="220" rx="15" ry="15" fill="#F8F8F8"/>
  <circle cx="620" cy="930" r="50" fill="#FFC0CB"/>
  <text x="620" y="940" font-family="Arial" font-size="24" text-anchor="middle" fill="#FFFFFF">JD</text>
  <text x="700" y="900" font-family="Arial" font-size="24" font-weight="bold" fill="#333333">João Doces</text>
  <text x="700" y="930" font-family="Arial" font-size="18" fill="#666666">Brigadeiros gourmet</text>
  
  <!-- Estrelas -->
  <polygon points="700,960 710,980 730,985 715,1000 720,1020 700,1010 680,1020 685,1000 670,985 690,980" fill="#FFD700" width="15" height="15"/>
  <polygon points="740,960 750,980 770,985 755,1000 760,1020 740,1010 720,1020 725,1000 710,985 730,980" fill="#FFD700" width="15" height="15"/>
  <polygon points="780,960 790,980 810,985 795,1000 800,1020 780,1010 760,1020 765,1000 750,985 770,980" fill="#FFD700" width="15" height="15"/>
  <polygon points="820,960 830,980 850,985 835,1000 840,1020 820,1010 800,1020 805,1000 790,985 810,980" fill="#FFD700" width="15" height="15"/>
  <polygon points="860,960 870,980 890,985 875,1000 880,1020 860,1010 840,1020 845,1000 830,985 850,980" fill="#FFD700" opacity="0.5" width="15" height="15"/>
  
  <text x="910" y="980" font-family="Arial" font-size="18" fill="#666666">(98)</text>
  
  <!-- Mais pedidos -->
  <text x="40" y="1130" font-family="Arial" font-size="28" font-weight="bold" fill="#333333">Mais pedidos</text>
  
  <!-- Produto 1 -->
  <rect x="40" y="1150" width="320" height="350" rx="15" ry="15" fill="#F8F8F8"/>
  <rect x="40" y="1150" width="320" height="200" rx="15" ry="15" fill="#D2691E"/>
  <text x="60" y="1380" font-family="Arial" font-size="20" font-weight="bold" fill="#333333">Bolo de Chocolate</text>
  <text x="60" y="1410" font-family="Arial" font-size="18" fill="#666666">A partir de R$ 89,90</text>
  <text x="60" y="1440" font-family="Arial" font-size="16" fill="#FF69B4">★★★★★ (45)</text>
  
  <!-- Produto 2 -->
  <rect x="380" y="1150" width="320" height="350" rx="15" ry="15" fill="#F8F8F8"/>
  <rect x="380" y="1150" width="320" height="200" rx="15" ry="15" fill="#FFB6C1"/>
  <text x="400" y="1380" font-family="Arial" font-size="20" font-weight="bold" fill="#333333">Cupcakes (6 unid.)</text>
  <text x="400" y="1410" font-family="Arial" font-size="18" fill="#666666">A partir de R$ 42,00</text>
  <text x="400" y="1440" font-family="Arial" font-size="16" fill="#FF69B4">★★★★☆ (32)</text>
  
  <!-- Produto 3 -->
  <rect x="720" y="1150" width="320" height="350" rx="15" ry="15" fill="#F8F8F8"/>
  <rect x="720" y="1150" width="320" height="200" rx="15" ry="15" fill="#FFDAB9"/>
  <text x="740" y="1380" font-family="Arial" font-size="20" font-weight="bold" fill="#333333">Torta de Limão</text>
  <text x="740" y="1410" font-family="Arial" font-size="18" fill="#666666">A partir de R$ 75,00</text>
  <text x="740" y="1440" font-family="Arial" font-size="16" fill="#FF69B4">★★★★★ (38)</text>
  
  <!-- Promoções -->
  <text x="40" y="1550" font-family="Arial" font-size="28" font-weight="bold" fill="#333333">Promoções</text>
  
  <!-- Promoção 1 -->
  <rect x="40" y="1570" width="1000" height="150" rx="15" ry="15" fill="#FFE4E1"/>
  <text x="60" y="1620" font-family="Arial" font-size="24" font-weight="bold" fill="#FF69B4">Frete Grátis</text>
  <text x="60" y="1660" font-family="Arial" font-size="20" fill="#333333">Em pedidos acima de R$ 120,00</text>
  <text x="800" y="1640" font-family="Arial" font-size="18" fill="#FF69B4">Usar ></text>
  
  <!-- Barra de navegação inferior -->
  <rect y="1820" width="1080" height="100" fill="#FFE4E1"/>
  
  <!-- Ícone Home (ativo) -->
  <circle cx="180" cy="1870" r="30" fill="#FF69B4"/>
  <polyline points="160,1870 180,1850 200,1870" fill="none" stroke="#FFFFFF" stroke-width="2"/>
  <line x1="180" y1="1850" x2="180" y2="1890" stroke="#FFFFFF" stroke-width="2"/>
  
  <!-- Ícone Busca -->
  <circle cx="360" cy="1870" r="25" fill="none" stroke="#333333" stroke-width="2"/>
  <line x1="378" y1="1888" x2="390" y2="1900" stroke="#333333" stroke-width="3"/>
  
  <!-- Ícone Chat -->
  <rect x="520" y="1845" width="40" height="50" rx="5" ry="5" fill="none" stroke="#333333" stroke-width="2"/>
  <line x1="520" y1="1860" x2="560" y2="1860" stroke="#333333" stroke-width="2"/>
  <line x1="520" y1="1875" x2="560" y2="1875" stroke="#333333" stroke-width="2"/>
  <line x1="520" y1="1890" x2="540" y2="1890" stroke="#333333" stroke-width="2"/>
  
  <!-- Ícone Pedidos -->
  <rect x="700" y="1845" width="40" height="50" rx="5" ry="5" fill="none" stroke="#333333" stroke-width="2"/>
  <line x1="700" y1="1860" x2="740" y2="1860" stroke="#333333" stroke-width="2"/>
  <line x1="700" y1="1875" x2="740" y2="1875" stroke="#333333" stroke-width="2"/>
  <line x1="700" y1="1890" x2="740" y2="1890" stroke="#333333" stroke-width="2"/>
  
  <!-- Ícone Perfil -->
  <circle cx="900" cy="1870" r="25" fill="none" stroke="#333333" stroke-width="2"/>
  <circle cx="900" cy="1855" r="10" fill="none" stroke="#333333" stroke-width="2"/>
  <path d="M875,1890 Q900,1875 925,1890" fill="none" stroke="#333333" stroke-width="2"/>
</svg>