<svg xmlns="http://www.w3.org/2000/svg" width="108" height="108" viewBox="0 0 108 108">
  <rect width="108" height="108" fill="#FFFFFF" />
  <circle cx="54" cy="54" r="45" fill="#FF69B4" />
  <path d="M54 24C37.4 24 24 37.4 24 54s13.4 30 30 30 30-13.4 30-30S70.6 24 54 24zm0 55c-13.8 0-25-11.2-25-25S40.2 29 54 29s25 11.2 25 25-11.2 25-25 25z" fill="#FFFFFF" />
  <path d="M68 42c-3.8-3.8-9-6.1-14.7-6.1-5.7 0-10.9 2.3-14.7 6.1-3.8 3.8-6.1 9-6.1 14.7 0 5.7 2.3 10.9 6.1 14.7 3.8 3.8 9 6.1 14.7 6.1 5.7 0 10.9-2.3 14.7-6.1 3.8-3.8 6.1-9 6.1-14.7 0-5.7-2.3-10.9-6.1-14.7zM54 71.3c-8 0-14.6-6.5-14.6-14.6S46 42.1 54 42.1s14.6 6.5 14.6 14.6S62 71.3 54 71.3z" fill="#FFFFFF" />
  <circle cx="54" cy="56.5" r="8.5" fill="#FFFFFF" />
</svg>