<svg xmlns="http://www.w3.org/2000/svg" width="1024" height="1024" viewBox="0 0 1024 1024">
  <rect width="1024" height="1024" fill="#FF69B4" />
  <circle cx="512" cy="512" r="400" fill="#FFFFFF" />
  <path d="M512 212C349.7 212 212 349.7 212 512s137.7 300 300 300 300-137.7 300-300S674.3 212 512 212zm0 550c-138.1 0-250-111.9-250-250S373.9 262 512 262s250 111.9 250 250-111.9 250-250 250z" fill="#FF69B4" />
  <path d="M650 400c-27.6-27.6-65.4-44.7-107.3-44.7-41.9 0-79.7 17-107.3 44.7-27.6 27.6-44.7 65.4-44.7 107.3 0 41.9 17 79.7 44.7 107.3 27.6 27.6 65.4 44.7 107.3 44.7 41.9 0 79.7-17 107.3-44.7 27.6-27.6 44.7-65.4 44.7-107.3 0-41.9-17-79.7-44.7-107.3zm-107.3 209.3c-56.3 0-102-45.7-102-102s45.7-102 102-102 102 45.7 102 102-45.7 102-102 102z" fill="#FF69B4" />
  <path d="M512 450c-34.2 0-62 27.8-62 62s27.8 62 62 62 62-27.8 62-62-27.8-62-62-62z" fill="#FF69B4" />
  <path d="M512 150c-33.1 0-60-26.9-60-60s26.9-60 60-60 60 26.9 60 60-26.9 60-60 60zm0 844c-33.1 0-60-26.9-60-60s26.9-60 60-60 60 26.9 60 60-26.9 60-60 60zm362-422c0-33.1 26.9-60 60-60s60 26.9 60 60-26.9 60-60 60-60-26.9-60-60zM90 512c0-33.1 26.9-60 60-60s60 26.9 60 60-26.9 60-60 60-60-26.9-60-60z" fill="#FFFFFF" />
</svg>